<svg xmlns="http://www.w3.org/2000/svg" width="29" height="27" viewBox="0 0 29 27">
  <defs>
    <style>
      .cls-1 {
        fill: #272c2c;
        fill-rule: evenodd;
      }
    </style>
  </defs>
  <path id="share" class="cls-1" d="M1140.17,1799a4.82,4.82,0,1,1-4.84,4.82A4.825,4.825,0,0,1,1140.17,1799Zm-19.34,8.68a4.815,4.815,0,1,1-4.83,4.81A4.825,4.825,0,0,1,1120.83,1807.68Zm19.34,8.68a4.82,4.82,0,1,1-4.84,4.82A4.825,4.825,0,0,1,1140.17,1816.36Zm-19.73-3.37-1.02-2.71,20.84-7.75,1.01,2.71Zm-0.72.71,1.27-2.6,19.98,9.72-1.27,2.6Z" transform="translate(-1116 -1799)"/>
</svg>
