<svg xmlns="http://www.w3.org/2000/svg" width="29" height="24.03" viewBox="0 0 29 24.03">
  <defs>
    <style>
      .cls-1 {
        fill: #252825;
        fill-rule: evenodd;
      }
    </style>
  </defs>
  <path id="twitter" class="cls-1" d="M999,1804.77l-2.719,2.76v0.46a6.035,6.035,0,0,1-.2,1.46,16.373,16.373,0,0,1-6.148,12.83c-9.625,7.84-19.937.93-19.937,0.93,8.156,0,8.156-2.77,8.156-2.77-1.812,0-5.437-3.69-5.437-3.69,0.906,0.92,2.718,0,2.718,0-4.531-2.76-4.531-5.53-4.531-5.53,0.906,0.92,2.719,0,2.719,0a6.449,6.449,0,0,1-1.813-8.3c0.907,4.61,12.688,6.46,12.688,6.46l0.15-.08a11.065,11.065,0,0,1-.15-1.77c0-3.31,2.637-5.53,5.89-5.53a5.82,5.82,0,0,1,4.456,2.11l0.529-.27,2.719-1.84-1.813,3.69Z" transform="translate(-970 -1802)"/>
</svg>
